# File produced by Open Asset Import Library (http://www.assimp.sf.net)
# (assimp v3.2.202087883)

mtllib model_normalized.mtl

# 138 vertex positions
v 0.192788 -0.272114 0.345104
v 0.156518 -0.272114 0.308834
v 0.192788 -0.272114 -0.040472
v -0.192788 -0.272114 0.345104
v 0.156518 -0.272114 -0.004202
v 0.192788 0.197960 0.345104
v -0.156518 -0.272114 0.308834
v -0.192788 -0.272114 -0.040472
v 0.156518 -0.241260 -0.004202
v 0.192788 0.197960 -0.040472
v -0.192788 0.197960 0.345104
v -0.156518 -0.272114 -0.004202
v -0.156518 -0.241260 0.308834
v -0.009230 -0.142294 -0.040472
v 0.156518 -0.241260 0.308834
v 0.015986 -0.135537 -0.040472
v 0.156518 0.197960 -0.004202
v 0.000000 0.402676 0.345104
v 0.207636 0.182193 0.362630
v 0.156518 0.197960 0.308834
v -0.192788 0.197960 -0.040472
v -0.013053 -0.139361 -0.040472
v -0.004777 -0.144139 -0.040472
v -0.156518 -0.241260 -0.004202
v 0.013053 -0.139361 -0.040472
v 0.017830 -0.131086 -0.040472
v 0.000000 0.402676 -0.040472
v 0.192788 0.197960 0.362630
v 0.192788 0.197960 -0.054466
v -0.156518 0.197960 0.308834
v 0.000000 0.402676 0.362630
v -0.207636 0.182193 0.362630
v -0.015986 -0.135537 -0.040472
v 0.009230 -0.142294 -0.040472
v -0.009230 -0.142294 -0.182880
v 0.004777 -0.144139 -0.040472
v -0.004777 -0.144139 -0.182880
v 0.000000 -0.144767 -0.040472
v 0.067619 -0.026595 -0.004202
v 0.092369 0.016274 -0.004202
v 0.013053 -0.139361 -0.182880
v -0.017830 -0.131086 -0.040472
v 0.015986 -0.135537 -0.182880
v 0.082816 -0.006790 -0.040472
v 0.000000 0.136652 -0.040472
v -0.156518 0.197960 -0.004202
v 0.000000 0.402676 -0.054466
v 0.207636 0.182193 -0.054466
v 0.224858 0.198412 0.362630
v -0.192788 0.197960 0.362630
v -0.192788 0.197960 -0.054466
v -0.207636 0.182193 -0.054466
v -0.015986 -0.135537 -0.182880
v -0.013053 -0.139361 -0.182880
v 0.000000 -0.144767 -0.182880
v 0.082816 -0.006790 -0.004202
v 0.047814 -0.041792 -0.004202
v 0.095627 0.041024 -0.004202
v -0.018459 -0.126308 -0.040472
v 0.017830 -0.131086 -0.182880
v 0.018459 -0.126308 -0.040472
v 0.092369 0.016274 -0.040472
v 0.024750 0.133393 -0.040472
v -0.024751 0.133393 -0.040472
v 0.000000 0.136652 -0.004202
v 0.224858 0.198412 -0.054466
v -0.224858 0.198412 0.362630
v -0.017830 -0.131086 -0.182880
v 0.009230 -0.142294 -0.182880
v 0.004777 -0.144139 -0.182880
v 0.047814 -0.041792 -0.040472
v 0.024750 -0.051345 -0.004202
v 0.092369 0.065774 -0.004202
v 0.095627 0.041024 -0.040472
v -0.082816 -0.006790 -0.040472
v -0.018459 -0.126308 -0.182880
v 0.017830 -0.121531 -0.040472
v 0.047814 0.123840 -0.040472
v -0.047814 0.123840 -0.040472
v -0.024751 0.133393 -0.004202
v 0.024750 0.133393 -0.004202
v -0.224858 0.198412 -0.054466
v 0.210010 0.214179 0.362630
v 0.210010 0.214179 -0.054466
v -0.210010 0.214179 0.362630
v -0.092369 0.016274 -0.004202
v 0.067619 -0.026595 -0.040472
v 0.024750 -0.051345 -0.040472
v 0.000000 -0.054603 -0.004202
v 0.082816 0.088838 -0.004202
v 0.092369 0.065774 -0.040472
v -0.017830 -0.121531 -0.040472
v -0.017830 -0.121531 -0.182880
v 0.018459 -0.126308 -0.182880
v 0.015986 -0.117078 -0.040472
v 0.067619 0.108643 -0.040472
v -0.067619 0.108643 -0.040472
v -0.047814 0.123840 -0.004202
v 0.047814 0.123840 -0.004202
v -0.210010 0.214179 -0.054466
v 0.000000 0.435116 0.362630
v 0.000000 0.435116 -0.054466
v -0.092369 0.016274 -0.040472
v -0.082816 -0.006790 -0.004202
v -0.095627 0.041024 -0.004202
v 0.009230 -0.110322 -0.040472
v 0.000000 -0.107849 -0.040472
v 0.000000 -0.054603 -0.040472
v -0.024751 -0.051345 -0.004202
v 0.067619 0.108643 -0.004202
v 0.082816 0.088838 -0.040472
v -0.015986 -0.117078 -0.040472
v 0.017830 -0.121531 -0.182880
v 0.013053 -0.113256 -0.040472
v -0.082816 0.088838 -0.040472
v -0.067619 0.108643 -0.004202
v -0.095627 0.041024 -0.040472
v -0.067619 -0.026595 -0.004202
v -0.092369 0.065774 -0.004202
v 0.004777 -0.108478 -0.040472
v -0.024751 -0.051345 -0.040472
v -0.047814 -0.041792 -0.004202
v -0.013053 -0.113256 -0.040472
v -0.015986 -0.117078 -0.182880
v 0.015986 -0.117078 -0.182880
v -0.092369 0.065774 -0.040472
v -0.082816 0.088838 -0.004202
v -0.067619 -0.026595 -0.040472
v -0.009230 -0.110322 -0.040472
v 0.009230 -0.110322 -0.182880
v -0.004777 -0.108478 -0.040472
v 0.004777 -0.108478 -0.182880
v 0.000000 -0.107849 -0.182880
v -0.047814 -0.041792 -0.040472
v -0.013053 -0.113256 -0.182880
v 0.013053 -0.113256 -0.182880
v -0.004777 -0.108478 -0.182880
v -0.009230 -0.110322 -0.182880

# 0 UV coordinates

# 38 vertex normals
vn 0 -0.01 0
vn 0.01 0 0
vn 0 0 0.01
vn -0.01 0 0
vn 0 0 -0.01
vn 0 0.01 0
vn 0.00728003 0.00685574 0
vn -0.00728003 -0.00685574 0
vn -0.00728003 0.00685574 0
vn 0.00728003 -0.00685574 -0
vn -0.00707107 -0.00707107 0
vn -0.005 -0.00866025 0
vn -0.00258819 -0.00965926 0
vn 0.00707107 -0.00707107 0
vn 0.00866025 -0.005 0
vn 0.00965926 -0.00258819 0
vn -0.00866025 -0.005 0
vn 0.005 -0.00866025 0
vn 0.00685574 -0.00728003 0
vn -0.00685574 -0.00728003 0
vn -0.00965926 -0.00258819 0
vn 0.00258819 -0.00965926 0
vn -0.00866025 0.005 0
vn -0.00707107 0.00707107 0
vn -0.005 0.00866025 0
vn -0.00965926 0.00258819 0
vn -0.00258819 0.00965926 0
vn 0.00965926 0.00258819 0
vn 0.00866025 0.005 0
vn 0.00724804 0.00688955 0
vn -0.00724804 0.00688955 0
vn 0.00258819 0.00965926 0
vn 0.00707107 0.00707107 0
vn 0.005 0.00866025 0
vn -0.00685574 0.00728003 0
vn 0.00685574 0.00728003 0
vn -0.00724804 -0.00688955 0
vn 0.00724804 -0.00688955 0

# Mesh 'mesh1_mesh1-geometry' with 304 faces
g mesh1_mesh1-geometry
usemtl material_0_24
f  1//1 2//1 3//1
f  2//1 1//1 4//1
f  5//1 3//1 2//1
f  3//2 6//2 1//2
f  6//3 4//3 1//3
f  2//1 4//1 7//1
f  3//1 5//1 8//1
f  2//4 9//4 5//4
f  7//1 5//1 2//1
f  6//2 3//2 10//2
f  4//3 6//3 11//3
f  7//1 4//1 12//1
f  13//5 2//5 7//5
f  8//1 5//1 12//1
f  8//5 14//5 3//5
f  9//4 2//4 15//4
f  9//3 12//3 5//3
f  5//1 7//1 12//1
f  3//5 16//5 10//5
f  10//6 17//6 6//6
f  10//7 18//7 6//7
f  10//8 19//8 6//8
f  6//6 20//6 11//6
f  18//3 11//3 6//3
f  21//4 4//4 11//4
f  8//1 12//1 4//1
f  12//2 13//2 7//2
f  2//5 13//5 15//5
f  14//5 8//5 22//5
f  3//5 14//5 23//5
f  12//3 9//3 24//3
f  16//5 3//5 25//5
f  10//5 16//5 26//5
f  17//6 10//6 21//6
f  20//6 6//6 17//6
f  18//7 10//7 27//7
f  28//8 18//8 6//8
f  29//8 19//8 10//8
f  6//8 19//8 28//8
f  11//6 20//6 30//6
f  27//9 11//9 18//9
f  31//10 11//10 18//10
f  4//4 21//4 8//4
f  11//6 30//6 21//6
f  11//9 27//9 21//9
f  32//10 21//10 11//10
f  13//2 12//2 24//2
f  22//5 8//5 33//5
f  34//5 14//5 22//5
f  22//11 35//12 14//12
f  36//5 23//5 14//5
f  14//12 37//13 23//13
f  3//5 23//5 38//5
f  9//3 39//3 24//3
f  40//3 9//3 17//3
f  25//5 3//5 34//5
f  25//5 33//5 16//5
f  41//14 16//15 25//14
f  16//5 42//5 26//5
f  43//15 26//16 16//15
f  10//5 26//5 44//5
f  10//5 45//5 21//5
f  27//5 10//5 21//5
f  17//6 21//6 46//6
f  47//8 10//8 27//8
f  18//8 28//8 31//8
f  19//8 29//8 48//8
f  10//8 47//8 29//8
f  49//3 28//3 19//3
f  11//10 31//10 50//10
f  33//5 8//5 21//5
f  46//6 21//6 30//6
f  51//10 27//10 21//10
f  52//10 21//10 32//10
f  32//10 11//10 50//10
f  25//5 22//5 33//5
f  53//17 22//11 33//17
f  36//5 14//5 34//5
f  34//5 22//5 25//5
f  35//12 22//11 54//11
f  37//13 14//12 35//12
f  23//5 36//5 38//5
f  55//1 23//13 37//13
f  23//13 55//1 38//1
f  36//5 3//5 38//5
f  39//3 9//3 56//3
f  24//3 39//3 57//3
f  56//3 9//3 40//3
f  40//3 17//3 58//3
f  34//5 3//5 36//5
f  34//18 41//14 25//14
f  16//5 33//5 42//5
f  16//15 41//14 43//15
f  26//5 42//5 59//5
f  26//16 43//15 60//16
f  44//5 26//5 61//5
f  10//5 44//5 62//5
f  10//5 63//5 45//5
f  64//5 21//5 45//5
f  46//3 65//3 17//3
f  27//10 51//10 47//10
f  28//3 49//3 31//3
f  29//5 66//5 48//5
f  66//19 19//19 48//19
f  66//5 29//5 47//5
f  19//19 66//19 49//19
f  67//3 50//3 31//3
f  33//5 21//5 42//5
f  21//10 52//10 51//10
f  67//20 52//20 32//20
f  50//3 67//3 32//3
f  22//11 53//17 54//11
f  33//17 68//21 53//17
f  36//22 69//18 34//18
f  69//5 35//5 54//5
f  70//5 37//5 35//5
f  38//1 70//22 36//22
f  37//5 70//5 55//5
f  70//22 38//1 55//1
f  44//23 39//24 56//23
f  39//24 71//25 57//25
f  24//3 57//3 72//3
f  62//26 56//23 40//26
f  58//3 17//3 73//3
f  74//4 40//26 58//4
f  41//14 34//18 69//18
f  68//21 33//17 42//21
f  41//5 53//5 43//5
f  42//5 75//5 59//5
f  76//4 42//21 59//4
f  26//5 59//5 61//5
f  43//5 68//5 60//5
f  60//16 61//2 26//16
f  44//5 61//5 77//5
f  56//23 62//26 44//23
f  10//5 62//5 74//5
f  10//5 78//5 63//5
f  63//13 65//1 45//1
f  79//5 21//5 64//5
f  45//1 80//22 64//22
f  46//3 80//3 65//3
f  81//3 17//3 65//3
f  51//5 82//5 47//5
f  31//3 49//3 83//3
f  66//5 47//5 84//5
f  66//7 83//7 49//7
f  67//3 31//3 85//3
f  42//5 21//5 75//5
f  24//3 86//3 46//3
f  82//5 51//5 52//5
f  52//20 67//20 82//20
f  41//5 54//5 53//5
f  43//5 53//5 68//5
f  69//18 36//22 70//22
f  70//5 35//5 69//5
f  69//5 54//5 41//5
f  39//24 44//23 87//24
f  71//25 39//24 87//24
f  88//27 57//25 71//25
f  57//25 88//27 72//27
f  24//3 72//3 89//3
f  40//26 74//4 62//26
f  73//3 17//3 90//3
f  91//21 58//4 73//21
f  58//4 91//21 74//4
f  42//21 76//4 68//21
f  59//5 75//5 92//5
f  59//4 93//26 76//4
f  61//5 59//5 92//5
f  60//5 68//5 76//5
f  61//2 60//16 94//2
f  61//5 92//5 77//5
f  94//2 77//28 61//2
f  44//5 77//5 95//5
f  10//5 74//5 91//5
f  10//5 96//5 78//5
f  78//12 81//13 63//13
f  65//1 63//13 81//13
f  80//22 45//1 65//1
f  97//5 21//5 79//5
f  64//22 98//18 79//18
f  98//18 64//22 80//22
f  46//3 98//3 80//3
f  99//3 17//3 81//3
f  47//5 82//5 100//5
f  31//3 83//3 101//3
f  84//5 47//5 102//5
f  83//7 66//7 84//7
f  85//3 31//3 101//3
f  100//9 67//9 85//9
f  75//5 21//5 103//5
f  86//3 24//3 104//3
f  46//3 86//3 105//3
f  67//9 100//9 82//9
f  44//5 106//5 87//5
f  87//5 107//5 71//5
f  71//5 107//5 88//5
f  108//6 72//27 88//27
f  72//27 108//6 89//6
f  109//3 24//3 89//3
f  90//3 17//3 110//3
f  111//17 73//21 90//17
f  73//21 111//17 91//21
f  92//5 75//5 112//5
f  93//26 59//4 92//26
f  94//5 76//5 93//5
f  60//5 76//5 94//5
f  77//5 92//5 112//5
f  77//28 94//2 113//28
f  77//5 112//5 95//5
f  113//28 95//29 77//28
f  44//5 95//5 114//5
f  10//5 91//5 111//5
f  10//5 111//5 96//5
f  96//11 99//12 78//12
f  81//13 78//12 99//12
f  115//5 21//5 97//5
f  79//18 116//14 97//14
f  116//14 79//18 98//18
f  46//3 116//3 98//3
f  110//3 17//3 99//3
f  47//5 100//5 102//5
f  84//30 101//30 83//30
f  101//30 84//30 102//30
f  101//31 100//31 85//31
f  103//5 21//5 117//5
f  86//28 75//29 103//28
f  104//3 24//3 118//3
f  75//29 86//28 104//29
f  103//28 105//2 86//28
f  46//3 105//3 119//3
f  44//5 114//5 106//5
f  87//5 106//5 120//5
f  87//5 120//5 107//5
f  88//5 107//5 108//5
f  121//32 89//6 108//6
f  122//3 24//3 109//3
f  89//6 121//32 109//32
f  96//11 90//17 110//11
f  90//17 96//11 111//17
f  112//5 75//5 123//5
f  124//23 92//26 112//23
f  92//26 124//23 93//26
f  94//5 93//5 113//5
f  95//5 112//5 123//5
f  95//29 113//28 125//29
f  95//5 123//5 114//5
f  125//29 114//33 95//29
f  99//12 96//11 110//11
f  126//5 21//5 115//5
f  116//14 115//15 97//14
f  46//3 127//3 116//3
f  100//31 101//31 102//31
f  117//5 21//5 126//5
f  105//2 103//28 117//2
f  118//3 24//3 122//3
f  128//33 104//29 118//33
f  104//29 128//33 75//29
f  117//2 119//16 105//2
f  46//3 119//3 127//3
f  114//5 129//5 106//5
f  114//33 130//34 106//34
f  106//5 131//5 120//5
f  106//34 132//32 120//32
f  120//5 131//5 107//5
f  120//32 133//6 107//6
f  107//5 121//5 108//5
f  109//32 134//34 122//34
f  134//34 109//32 121//32
f  123//5 75//5 129//5
f  135//24 112//23 123//24
f  112//23 135//24 124//23
f  113//5 93//5 124//5
f  113//5 124//5 125//5
f  114//5 123//5 129//5
f  114//33 125//29 136//33
f  127//15 126//16 115//15
f  115//15 116//14 127//15
f  119//16 117//2 126//16
f  122//34 128//33 118//33
f  129//5 75//5 128//5
f  126//16 127//15 119//16
f  106//5 129//5 131//5
f  130//34 114//33 136//33
f  132//32 106//34 130//34
f  133//6 120//32 132//32
f  131//5 128//5 107//5
f  107//6 137//27 131//27
f  137//27 107//6 133//6
f  107//5 134//5 121//5
f  128//33 122//34 134//34
f  129//25 135//24 123//24
f  125//5 124//5 135//5
f  125//5 135//5 136//5
f  129//5 128//5 131//5
f  131//27 138//25 129//25
f  136//5 138//5 130//5
f  130//5 137//5 132//5
f  132//5 137//5 133//5
f  107//5 128//5 134//5
f  138//25 131//27 137//27
f  135//24 129//25 138//25
f  136//5 135//5 138//5
f  130//5 138//5 137//5

# Mesh 'mesh1_mesh1-geometry' with 306 faces
g mesh1_mesh1-geometry
usemtl material_1_24
f  3//6 2//6 1//6
f  4//6 1//6 2//6
f  2//6 3//6 5//6
f  1//4 6//4 3//4
f  1//5 4//5 6//5
f  7//6 4//6 2//6
f  8//6 5//6 3//6
f  5//2 9//2 2//2
f  2//6 5//6 7//6
f  10//4 3//4 6//4
f  11//5 6//5 4//5
f  12//6 4//6 7//6
f  7//3 2//3 13//3
f  12//6 5//6 8//6
f  3//3 14//3 8//3
f  15//2 2//2 9//2
f  5//5 12//5 9//5
f  12//6 7//6 5//6
f  10//3 16//3 3//3
f  6//1 17//1 10//1
f  6//7 19//7 10//7
f  11//1 20//1 6//1
f  11//2 4//2 21//2
f  4//6 12//6 8//6
f  7//4 13//4 12//4
f  15//3 13//3 2//3
f  22//3 8//3 14//3
f  23//3 14//3 3//3
f  9//1 15//1 24//1
f  9//2 17//2 15//2
f  24//5 9//5 12//5
f  25//3 3//3 16//3
f  26//3 16//3 10//3
f  21//1 10//1 17//1
f  17//1 6//1 20//1
f  6//7 18//7 28//7
f  10//7 19//7 29//7
f  28//7 19//7 6//7
f  30//1 20//1 11//1
f  18//9 11//9 31//9
f  8//2 21//2 4//2
f  21//1 30//1 11//1
f  11//9 21//9 32//9
f  24//4 12//4 13//4
f  13//1 24//1 15//1
f  13//3 15//3 30//3
f  33//3 8//3 22//3
f  22//3 14//3 34//3
f  14//34 35//34 22//33
f  14//3 23//3 36//3
f  23//32 37//32 14//34
f  38//3 23//3 3//3
f  24//5 39//5 9//5
f  20//2 15//2 17//2
f  17//5 9//5 40//5
f  34//3 3//3 25//3
f  16//3 33//3 25//3
f  25//24 16//23 41//24
f  26//3 42//3 16//3
f  16//23 26//26 43//23
f  44//3 26//3 10//3
f  21//3 45//3 10//3
f  46//1 21//1 17//1
f  27//7 10//7 47//7
f  31//7 28//7 18//7
f  48//7 29//7 19//7
f  29//7 47//7 10//7
f  19//5 28//5 49//5
f  20//3 30//3 15//3
f  50//9 31//9 11//9
f  21//3 8//3 33//3
f  30//1 21//1 46//1
f  21//9 27//9 51//9
f  32//9 21//9 52//9
f  50//9 11//9 32//9
f  13//4 30//4 24//4
f  33//3 22//3 25//3
f  33//29 22//33 53//29
f  34//3 14//3 36//3
f  25//3 22//3 34//3
f  54//33 22//33 35//34
f  35//34 14//34 37//32
f  38//3 36//3 23//3
f  37//32 23//32 55//6
f  38//6 55//6 23//32
f  38//3 3//3 36//3
f  56//5 9//5 39//5
f  57//5 39//5 24//5
f  40//5 9//5 56//5
f  58//5 17//5 40//5
f  36//3 3//3 34//3
f  25//24 41//24 34//25
f  42//3 33//3 16//3
f  43//23 41//24 16//23
f  59//3 42//3 26//3
f  60//26 43//23 26//26
f  61//3 26//3 44//3
f  62//3 44//3 10//3
f  45//3 63//3 10//3
f  45//3 21//3 64//3
f  17//5 65//5 46//5
f  47//9 51//9 27//9
f  31//5 49//5 28//5
f  48//3 66//3 29//3
f  48//35 19//35 66//35
f  47//3 29//3 66//3
f  49//35 66//35 19//35
f  31//5 50//5 67//5
f  42//3 21//3 33//3
f  46//4 24//4 30//4
f  51//9 52//9 21//9
f  32//36 52//36 67//36
f  32//5 67//5 50//5
f  54//33 53//29 22//33
f  53//29 68//28 33//29
f  34//25 69//25 36//27
f  54//3 35//3 69//3
f  35//3 37//3 70//3
f  36//27 70//27 38//6
f  55//3 70//3 37//3
f  55//6 38//6 70//27
f  56//15 39//14 44//15
f  57//18 71//18 39//14
f  72//5 57//5 24//5
f  40//16 56//15 62//16
f  73//5 17//5 58//5
f  58//2 40//16 74//2
f  69//25 34//25 41//24
f  42//28 33//29 68//28
f  43//3 53//3 41//3
f  59//3 75//3 42//3
f  59//2 42//28 76//2
f  61//3 59//3 26//3
f  60//3 68//3 43//3
f  26//26 61//4 60//26
f  77//3 61//3 44//3
f  44//15 62//16 56//15
f  74//3 62//3 10//3
f  63//3 78//3 10//3
f  45//6 65//6 63//32
f  64//3 21//3 79//3
f  64//27 80//27 45//6
f  65//5 80//5 46//5
f  65//5 17//5 81//5
f  47//3 82//3 51//3
f  83//5 49//5 31//5
f  84//3 47//3 66//3
f  49//8 83//8 66//8
f  85//5 31//5 67//5
f  75//3 21//3 42//3
f  46//5 86//5 24//5
f  52//3 51//3 82//3
f  82//36 67//36 52//36
f  53//3 54//3 41//3
f  68//3 53//3 43//3
f  70//27 36//27 69//25
f  69//3 35//3 70//3
f  41//3 54//3 69//3
f  87//14 44//15 39//14
f  87//14 39//14 71//18
f  71//18 57//18 88//22
f  72//22 88//22 57//18
f  89//5 72//5 24//5
f  62//16 74//2 40//16
f  90//5 17//5 73//5
f  73//28 58//2 91//28
f  74//2 91//28 58//2
f  68//28 76//2 42//28
f  92//3 75//3 59//3
f  76//2 93//16 59//2
f  92//3 59//3 61//3
f  76//3 68//3 60//3
f  94//4 60//26 61//4
f  77//3 92//3 61//3
f  61//4 77//21 94//4
f  95//3 77//3 44//3
f  91//3 74//3 10//3
f  78//3 96//3 10//3
f  63//32 81//32 78//34
f  81//32 63//32 65//6
f  65//6 45//6 80//27
f  79//3 21//3 97//3
f  79//25 98//25 64//27
f  80//27 64//27 98//25
f  80//5 98//5 46//5
f  81//5 17//5 99//5
f  100//3 82//3 47//3
f  101//5 83//5 31//5
f  102//3 47//3 84//3
f  84//8 66//8 83//8
f  101//5 31//5 85//5
f  85//10 67//10 100//10
f  103//3 21//3 75//3
f  104//5 24//5 86//5
f  105//5 86//5 46//5
f  82//10 100//10 67//10
f  87//3 106//3 44//3
f  71//3 107//3 87//3
f  88//3 107//3 71//3
f  88//22 72//22 108//1
f  89//1 108//1 72//22
f  89//5 24//5 109//5
f  110//5 17//5 90//5
f  90//29 73//28 111//29
f  91//28 111//29 73//28
f  112//3 75//3 92//3
f  92//16 59//2 93//16
f  93//3 76//3 94//3
f  94//3 76//3 60//3
f  112//3 92//3 77//3
f  113//21 94//4 77//21
f  95//3 112//3 77//3
f  77//21 95//17 113//21
f  114//3 95//3 44//3
f  111//3 91//3 10//3
f  96//3 111//3 10//3
f  78//34 99//34 96//33
f  99//34 78//34 81//32
f  97//3 21//3 115//3
f  97//24 116//24 79//25
f  98//25 79//25 116//24
f  98//5 116//5 46//5
f  99//5 17//5 110//5
f  102//3 100//3 47//3
f  83//37 101//37 84//37
f  102//37 84//37 101//37
f  85//38 100//38 101//38
f  117//3 21//3 103//3
f  103//21 75//17 86//21
f  118//5 24//5 104//5
f  104//17 86//21 75//17
f  86//21 105//4 103//21
f  119//5 105//5 46//5
f  106//3 114//3 44//3
f  120//3 106//3 87//3
f  107//3 120//3 87//3
f  108//3 107//3 88//3
f  108//1 89//1 121//13
f  109//5 24//5 122//5
f  109//13 121//13 89//1
f  110//33 90//29 96//33
f  111//29 96//33 90//29
f  123//3 75//3 112//3
f  112//15 92//16 124//15
f  93//16 124//15 92//16
f  113//3 93//3 94//3
f  123//3 112//3 95//3
f  125//17 113//21 95//17
f  114//3 123//3 95//3
f  95//17 114//11 125//17
f  110//33 96//33 99//34
f  115//3 21//3 126//3
f  97//24 115//23 116//24
f  116//5 127//5 46//5
f  102//38 101//38 100//38
f  126//3 21//3 117//3
f  117//4 103//21 105//4
f  122//5 24//5 118//5
f  118//11 104//17 128//11
f  75//17 128//11 104//17
f  105//4 119//26 117//4
f  127//5 119//5 46//5
f  106//3 129//3 114//3
f  106//12 130//12 114//11
f  120//3 131//3 106//3
f  120//13 132//13 106//12
f  107//3 131//3 120//3
f  107//1 133//1 120//13
f  108//3 121//3 107//3
f  122//12 134//12 109//13
f  121//13 109//13 134//12
f  129//3 75//3 123//3
f  123//14 112//15 135//14
f  124//15 135//14 112//15
f  124//3 93//3 113//3
f  125//3 124//3 113//3
f  129//3 123//3 114//3
f  136//11 125//17 114//11
f  115//23 126//26 127//23
f  127//23 116//24 115//23
f  126//26 117//4 119//26
f  118//11 128//11 122//12
f  128//3 75//3 129//3
f  119//26 127//23 126//26
f  131//3 129//3 106//3
f  136//11 114//11 130//12
f  130//12 106//12 132//13
f  132//13 120//13 133//1
f  107//3 128//3 131//3
f  131//22 137//22 107//1
f  133//1 107//1 137//22
f  121//3 134//3 107//3
f  134//12 122//12 128//11
f  123//14 135//14 129//18
f  135//3 124//3 125//3
f  136//3 135//3 125//3
f  131//3 128//3 129//3
f  129//18 138//18 131//22
f  130//3 138//3 136//3
f  132//3 137//3 130//3
f  133//3 137//3 132//3
f  134//3 128//3 107//3
f  137//22 131//22 138//18
f  138//18 129//18 135//14
f  138//3 135//3 136//3
f  137//3 138//3 130//3

# Mesh 'mesh1_mesh1-geometry' with 14 faces
g mesh1_mesh1-geometry
usemtl material_2_24
f  6//8 18//8 10//8
f  6//5 11//5 18//5
f  24//6 15//6 9//6
f  15//4 17//4 9//4
f  27//8 10//8 18//8
f  18//10 11//10 27//10
f  21//10 27//10 11//10
f  15//6 24//6 13//6
f  30//5 15//5 13//5
f  17//4 15//4 20//4
f  21//3 10//3 27//3
f  15//5 30//5 20//5
f  24//2 30//2 13//2
f  30//2 24//2 46//2

